<?xml version="1.0" encoding="UTF-8"?>
<svg id="Layer_2" data-name="Layer 2" xmlns="http://www.w3.org/2000/svg" viewBox="0 0 396 453.49">
  <defs>
    <style>
      .cls-1 {
        fill: #78b502;
      }
    </style>
  </defs>
  <g id="Layer_3" data-name="Layer 3">
    <path class="cls-1" d="M392.4,318.49c1.99,0,3.6-1.61,3.6-3.6v-10.8c0-1.99-1.61-3.6-3.6-3.6h-41.4v-69.82c0-7.16-2.84-14.03-7.91-19.09l-29.39-29.39c-4.73-4.73-6.45-11.71-4.45-18.1l36.62-117.19c2.87-9.18-1.99-19-11.03-22.29L270.15,1.09c-9.81-3.57-20.59,1.93-23.46,11.97l-40.04,140.14c-2.49,8.7-14.82,8.7-17.31,0L149.31,13.06c-2.87-10.04-13.65-15.54-23.46-11.97L61.16,24.61c-9.04,3.29-13.9,13.1-11.03,22.29l36.62,117.19c2,6.39.28,13.36-4.45,18.1l-29.39,29.39c-5.06,5.06-7.91,11.93-7.91,19.09v69.82H5.04c-2.78,0-5.04,2.26-5.04,5.04v7.92c0,2.78,2.26,5.04,5.04,5.04h39.96v27H5.04c-2.78,0-5.04,2.26-5.04,5.04v7.92c0,2.78,2.26,5.04,5.04,5.04h39.96v33.82c0,7.16,2.84,14.03,7.91,19.09l29.18,29.18c5.06,5.06,11.93,7.91,19.09,7.91h193.63c7.16,0,14.03-2.84,19.09-7.91l29.18-29.18c5.06-5.06,7.91-11.93,7.91-19.09v-33.82h41.4c1.99,0,3.6-1.61,3.6-3.6v-10.8c0-1.99-1.61-3.6-3.6-3.6h-41.4v-27h41.4ZM238.19,176.69l41.44-125.83c.58-1.76,2.59-2.76,4.49-2.22l10.33,2.92c1.9.54,2.97,2.4,2.39,4.17l-41.44,125.83c-.81,2.47-3.63,3.86-6.29,3.1l-7.58-2.14c-2.66-.75-4.16-3.36-3.35-5.83ZM101.55,51.56l10.33-2.92c1.9-.54,3.91.45,4.49,2.22l41.44,125.83c.81,2.47-.69,5.08-3.35,5.83l-7.57,2.14c-2.66.75-5.48-.64-6.29-3.1l-41.44-125.83c-.58-1.76.49-3.63,2.39-4.17ZM279.06,412.33c0,2.88-2.42,5.17-5.29,5.04-28.6-1.32-47.38-13.3-59.68-27.66-2.79-3.25-.43-8.28,3.85-8.29l10.93-.02c1.31,0,2.55.52,3.51,1.42,10.83,10.13,24.81,15.67,41.84,16.54,2.7.14,4.85,2.33,4.85,5.04v7.93ZM333,358.45c0,2.78-2.26,5.04-5.04,5.04h-130.3c-.5,1.23-1.02,2.46-1.57,3.69-9.93,22.06-30.74,48.19-73.77,50.19-2.89.13-5.31-2.15-5.31-5.04v-7.93c0-2.66,2.07-4.89,4.73-5.03,25.86-1.29,44.72-13.35,56.16-35.88h-109.85c-2.78,0-5.04-2.26-5.04-5.04v-8.7c0-2.78,2.26-5.04,5.04-5.04h116.97c3.86-14.28,3.99-25.88,3.99-26.22h-93.96c-2.78,0-5.04-2.26-5.04-5.04v-7.92c0-2.78,2.26-5.04,5.04-5.04h93.96v-27h-66.96c-2.78,0-5.04-2.26-5.04-5.04v-8.7c0-2.78,2.26-5.04,5.04-5.04h66.96v-26.22h-84.96c-2.78,0-5.04-2.26-5.04-5.04v-7.92c0-2.78,2.26-5.04,5.04-5.04h187.92c2.78,0,5.04,2.26,5.04,5.04v7.92c0,2.78-2.26,5.04-5.04,5.04h-84.96v26.22h66.96c2.78,0,5.04,2.26,5.04,5.04v8.7c0,2.78-2.26,5.04-5.04,5.04h-66.96v27h93.96c2.78,0,5.04,2.26,5.04,5.04v7.92c0,2.78-2.26,5.04-5.04,5.04h-93.96c0,.67-.06,11.72-3.43,26.22h124.39c2.78,0,5.04,2.26,5.04,5.04v8.7Z"/>
  </g>
</svg>