<svg width="1073" height="339" viewBox="0 0 1073 339" fill="none" xmlns="http://www.w3.org/2000/svg">
<path d="M123.167 299.865C120.307 302.509 118.075 305.932 116.472 310.136C114.912 314.296 114.132 319.019 114.132 324.306C114.132 329.518 114.904 334.216 116.445 338.4H110.207C109.855 337.369 109.538 336.311 109.257 335.226C108.347 331.716 107.892 328.076 107.892 324.306C107.892 320.536 108.347 316.896 109.257 313.386C110.167 309.876 111.445 306.647 113.092 303.7C114.782 300.754 116.776 298.262 119.072 296.226L123.167 299.865Z" fill="#2A2A2A"/>
<path d="M261.707 338.4H255.207V285.601H261.707V338.4Z" fill="#2A2A2A"/>
<path d="M450.707 338.4H444.207V285.601H450.707V338.4Z" fill="#2A2A2A"/>
<path d="M576.707 338.4H570.207V285.601H576.707V338.4Z" fill="#2A2A2A"/>
<path fill-rule="evenodd" clip-rule="evenodd" d="M783.132 293.4C785.992 293.4 788.548 293.985 790.802 295.155C793.098 296.325 794.897 297.972 796.197 300.096C797.54 302.219 798.212 304.71 798.212 307.57C798.212 310.43 797.54 312.922 796.197 315.045C794.897 317.168 793.098 318.815 790.802 319.985C788.548 321.155 785.992 321.74 783.132 321.74H773.707V338.4H766.232V293.4H783.132ZM773.707 315.24H782.742C784.302 315.24 785.667 314.937 786.837 314.33C788.05 313.68 789.004 312.792 789.697 311.665C790.39 310.495 790.737 309.13 790.737 307.57C790.737 306.01 790.391 304.667 789.697 303.54C789.004 302.37 788.05 301.482 786.837 300.875C785.667 300.225 784.302 299.9 782.742 299.9H773.707V315.24Z" fill="#2A2A2A"/>
<path d="M840.079 338.4H811.702V332.776H840.079V338.4Z" fill="#2A2A2A"/>
<path d="M875.269 338.4H846.892V332.776H875.269V338.4Z" fill="#2A2A2A"/>
<path d="M163.354 316.865L159.542 323.983C160.213 324.158 160.84 324.552 161.424 325.166C162.282 325.981 162.711 327.032 162.711 328.318C162.711 329.648 162.239 330.807 161.295 331.794C160.351 332.78 159.214 333.273 157.885 333.273C156.598 333.273 155.461 332.801 154.475 331.857C153.531 330.871 153.059 329.691 153.059 328.318C153.059 327.761 153.166 327.118 153.381 326.389C153.638 325.617 154.067 324.651 154.668 323.493L159.43 314.741L163.354 316.865Z" fill="#2A2A2A"/>
<path d="M176.481 316.865L172.669 323.983C173.34 324.158 173.968 324.552 174.551 325.166C175.409 325.981 175.838 327.032 175.838 328.318C175.838 329.648 175.366 330.807 174.422 331.794C173.478 332.78 172.341 333.273 171.012 333.273C169.725 333.273 168.588 332.801 167.602 331.857C166.658 330.871 166.186 329.691 166.186 328.318C166.186 327.761 166.293 327.118 166.508 326.389C166.765 325.617 167.193 324.651 167.794 323.493L172.556 314.741L176.481 316.865Z" fill="#2A2A2A"/>
<path d="M840.079 324.412H811.702V317.977H840.079V324.412Z" fill="#2A2A2A"/>
<path d="M875.269 324.412H846.892V317.977H875.269V324.412Z" fill="#2A2A2A"/>
<path d="M814.707 309.851H808.207V251.351H814.707V309.851Z" fill="#2A2A2A"/>
<path d="M877.707 309.851H871.207V251.351H877.707V309.851Z" fill="#2A2A2A"/>
<path d="M105.167 254.865C102.307 257.509 100.075 260.932 98.4717 265.136C96.9118 269.296 96.1318 274.019 96.1318 279.306C96.1319 284.549 96.9117 289.272 98.4717 293.476C100.075 297.679 102.307 301.102 105.167 303.745L101.072 307.386C98.7756 305.349 96.7818 302.857 95.0918 299.91C93.4452 296.964 92.1668 293.735 91.2568 290.226C90.3469 286.716 89.8916 283.076 89.8916 279.306C89.8916 275.536 90.3469 271.896 91.2568 268.386C92.1668 264.876 93.4451 261.647 95.0918 258.7C96.7818 255.754 98.7756 253.262 101.072 251.226L105.167 254.865Z" fill="#2A2A2A"/>
<path d="M208.354 289.865L204.542 296.983C205.213 297.158 205.84 297.552 206.424 298.166C207.282 298.981 207.711 300.032 207.711 301.318C207.711 302.648 207.239 303.807 206.295 304.794C205.351 305.78 204.214 306.273 202.885 306.273C201.598 306.273 200.461 305.801 199.475 304.857C198.531 303.871 198.059 302.691 198.059 301.318C198.059 300.761 198.166 300.118 198.381 299.389C198.638 298.617 199.067 297.651 199.668 296.493L204.43 287.741L208.354 289.865Z" fill="#2A2A2A"/>
<path d="M221.481 289.865L217.669 296.983C218.34 297.158 218.968 297.552 219.551 298.166C220.409 298.981 220.838 300.032 220.838 301.318C220.838 302.648 220.366 303.807 219.422 304.794C218.478 305.78 217.341 306.273 216.012 306.273C214.725 306.273 213.588 305.801 212.602 304.857C211.658 303.871 211.186 302.691 211.186 301.318C211.186 300.761 211.293 300.118 211.508 299.389C211.765 298.617 212.193 297.651 212.794 296.493L217.556 287.741L221.481 289.865Z" fill="#2A2A2A"/>
<path d="M154.354 271.865L150.542 278.983C151.213 279.158 151.84 279.552 152.424 280.166C153.282 280.981 153.711 282.032 153.711 283.318C153.711 284.648 153.239 285.807 152.295 286.794C151.351 287.78 150.214 288.273 148.885 288.273C147.598 288.273 146.461 287.801 145.475 286.857C144.531 285.871 144.059 284.691 144.059 283.318C144.059 282.761 144.166 282.118 144.381 281.389C144.638 280.617 145.067 279.651 145.668 278.493L150.43 269.741L154.354 271.865Z" fill="#2A2A2A"/>
<path d="M167.481 271.865L163.669 278.983C164.34 279.158 164.968 279.552 165.551 280.166C166.409 280.981 166.838 282.032 166.838 283.318C166.838 284.648 166.366 285.807 165.422 286.794C164.478 287.78 163.341 288.273 162.012 288.273C160.725 288.273 159.588 287.801 158.602 286.857C157.658 285.871 157.186 284.691 157.186 283.318C157.186 282.761 157.293 282.118 157.508 281.389C157.765 280.617 158.193 279.651 158.794 278.493L163.556 269.741L167.481 271.865Z" fill="#2A2A2A"/>
<path d="M254.167 224.615C251.307 227.259 249.075 230.682 247.472 234.886C245.912 239.046 245.132 243.769 245.132 249.056C245.132 254.299 245.912 259.022 247.472 263.226C249.075 267.429 251.307 270.852 254.167 273.495L250.072 277.136C247.776 275.099 245.782 272.607 244.092 269.66C242.445 266.714 241.167 263.485 240.257 259.976C239.347 256.466 238.892 252.826 238.892 249.056C238.892 245.286 239.347 241.646 240.257 238.136C241.167 234.626 242.445 231.397 244.092 228.45C245.782 225.504 247.776 223.012 250.072 220.976L254.167 224.615Z" fill="#2A2A2A"/>
<path d="M453.947 220.976C456.244 223.012 458.216 225.504 459.862 228.45C461.552 231.397 462.852 234.626 463.762 238.136C464.672 241.646 465.127 245.286 465.127 249.056C465.127 252.826 464.672 256.466 463.762 259.976C462.852 263.485 461.552 266.714 459.862 269.66C458.216 272.607 456.244 275.099 453.947 277.136L449.852 273.495C452.712 270.852 454.922 267.429 456.482 263.226C458.086 259.022 458.887 254.299 458.887 249.056C458.887 243.769 458.086 239.046 456.482 234.886C454.922 230.682 452.712 227.259 449.852 224.615L453.947 220.976Z" fill="#2A2A2A"/>
<path d="M777.058 215.877C779.399 217.954 781.41 220.494 783.089 223.498C784.812 226.502 786.138 229.794 787.065 233.373C787.993 236.952 788.457 240.663 788.457 244.507C788.457 248.351 787.993 252.062 787.065 255.641C786.138 259.219 784.812 262.511 783.089 265.516C781.41 268.52 779.399 271.06 777.058 273.137L772.883 269.426C775.799 266.731 778.052 263.24 779.643 258.954C781.277 254.669 782.095 249.853 782.095 244.507C782.095 239.117 781.277 234.301 779.643 230.06C778.052 225.774 775.799 222.283 772.883 219.588L777.058 215.877Z" fill="#2A2A2A"/>
<path d="M561.167 218.865C558.307 221.509 556.075 224.932 554.472 229.136C552.912 233.296 552.132 238.019 552.132 243.306C552.132 248.549 552.912 253.272 554.472 257.476C556.075 261.679 558.307 265.102 561.167 267.745L557.072 271.386C554.776 269.349 552.782 266.857 551.092 263.91C549.445 260.964 548.167 257.735 547.257 254.226C546.347 250.716 545.892 247.076 545.892 243.306C545.892 239.536 546.347 235.896 547.257 232.386C548.167 228.876 549.445 225.647 551.092 222.7C552.782 219.754 554.776 217.262 557.072 215.226L561.167 218.865Z" fill="#2A2A2A"/>
<path fill-rule="evenodd" clip-rule="evenodd" d="M123.557 217.5C126.59 217.5 129.32 218.216 131.747 219.646C134.174 221.032 136.08 222.917 137.467 225.301C138.897 227.641 139.612 230.284 139.612 233.23C139.612 237.39 138.16 241.594 135.257 245.841L122.842 263.65H114.197L125.594 247.693C124.559 248.016 123.274 248.181 121.737 248.181C119.137 248.181 116.754 247.574 114.587 246.36C112.42 245.104 110.687 243.37 109.387 241.16C108.087 238.95 107.437 236.393 107.437 233.49C107.437 230.544 108.152 227.857 109.582 225.431C111.055 223.004 113.005 221.075 115.432 219.646C117.858 218.216 120.567 217.5 123.557 217.5ZM123.557 224.521C121.91 224.521 120.437 224.91 119.137 225.69C117.837 226.47 116.797 227.532 116.017 228.875C115.28 230.218 114.912 231.757 114.912 233.49C114.912 235.18 115.28 236.697 116.017 238.04C116.797 239.34 117.837 240.38 119.137 241.16C120.48 241.94 121.953 242.33 123.557 242.33C125.203 242.33 126.677 241.94 127.977 241.16C129.277 240.38 130.296 239.319 131.032 237.976C131.769 236.632 132.137 235.137 132.137 233.49C132.137 231.757 131.769 230.218 131.032 228.875C130.296 227.532 129.276 226.47 127.977 225.69C126.677 224.911 125.203 224.521 123.557 224.521Z" fill="#2A2A2A"/>
<path fill-rule="evenodd" clip-rule="evenodd" d="M213.557 217.5C216.59 217.5 219.32 218.216 221.747 219.646C224.174 221.032 226.08 222.917 227.467 225.301C228.897 227.641 229.612 230.284 229.612 233.23C229.612 237.39 228.16 241.594 225.257 245.841L212.842 263.65H204.197L215.594 247.693C214.559 248.016 213.274 248.181 211.737 248.181C209.137 248.181 206.754 247.574 204.587 246.36C202.42 245.104 200.687 243.37 199.387 241.16C198.087 238.95 197.437 236.393 197.437 233.49C197.437 230.544 198.152 227.857 199.582 225.431C201.055 223.004 203.005 221.075 205.432 219.646C207.858 218.216 210.567 217.5 213.557 217.5ZM213.557 224.521C211.91 224.521 210.437 224.91 209.137 225.69C207.837 226.47 206.797 227.532 206.017 228.875C205.28 230.218 204.912 231.757 204.912 233.49C204.912 235.18 205.28 236.697 206.017 238.04C206.797 239.34 207.837 240.38 209.137 241.16C210.48 241.94 211.953 242.33 213.557 242.33C215.203 242.33 216.677 241.94 217.977 241.16C219.277 240.38 220.296 239.319 221.032 237.976C221.769 236.632 222.137 235.137 222.137 233.49C222.137 231.757 221.769 230.218 221.032 228.875C220.296 227.532 219.276 226.47 217.977 225.69C216.677 224.911 215.203 224.521 213.557 224.521Z" fill="#2A2A2A"/>
<path d="M270.622 253.521C271.995 253.521 273.111 253.971 273.969 254.872C274.869 255.773 275.319 256.91 275.319 258.282C275.319 259.612 274.869 260.749 273.969 261.692C273.111 262.593 271.995 263.044 270.622 263.044C269.249 263.044 268.113 262.593 267.212 261.692C266.354 260.749 265.925 259.612 265.925 258.282C265.925 256.91 266.354 255.773 267.212 254.872C268.113 253.971 269.249 253.521 270.622 253.521Z" fill="#2A2A2A"/>
<path d="M432.622 253.521C433.995 253.521 435.111 253.971 435.969 254.872C436.869 255.773 437.319 256.91 437.319 258.282C437.319 259.612 436.869 260.749 435.969 261.692C435.111 262.593 433.995 263.044 432.622 263.044C431.249 263.044 430.113 262.593 429.212 261.692C428.354 260.749 427.925 259.612 427.925 258.282C427.925 256.91 428.354 255.773 429.212 254.872C430.113 253.971 431.249 253.521 432.622 253.521Z" fill="#2A2A2A"/>
<path d="M288.285 252.552C289.608 252.552 290.683 252.986 291.51 253.854C292.378 254.722 292.812 255.818 292.812 257.141C292.812 258.422 292.378 259.518 291.51 260.428C290.683 261.296 289.608 261.73 288.285 261.73C286.962 261.73 285.866 261.296 284.998 260.428C284.171 259.518 283.758 258.422 283.758 257.141C283.758 255.818 284.171 254.722 284.998 253.854C285.866 252.985 286.962 252.552 288.285 252.552Z" fill="#2A2A2A"/>
<path d="M414.285 252.552C415.608 252.552 416.683 252.986 417.51 253.854C418.378 254.722 418.812 255.818 418.812 257.141C418.812 258.422 418.378 259.518 417.51 260.428C416.683 261.296 415.608 261.73 414.285 261.73C412.962 261.73 411.866 261.296 410.998 260.428C410.171 259.518 409.758 258.422 409.758 257.141C409.758 255.818 410.171 254.722 410.998 253.854C411.866 252.985 412.962 252.552 414.285 252.552Z" fill="#2A2A2A"/>
<path d="M513.518 244.367C514.762 244.367 515.834 244.517 516.735 244.817C517.679 245.118 518.536 245.483 519.309 245.912C520.081 246.298 520.832 246.641 521.562 246.941C522.334 247.242 523.191 247.392 524.135 247.392C525.121 247.392 526.044 247.177 526.902 246.748C527.803 246.319 528.639 245.675 529.411 244.817L533.401 248.872C532.243 250.588 530.891 251.896 529.347 252.797C527.845 253.698 526.173 254.148 524.328 254.148C523.084 254.148 521.991 253.997 521.047 253.697C520.146 253.397 519.309 253.054 518.537 252.668C517.765 252.239 516.993 251.874 516.221 251.574C515.491 251.274 514.655 251.124 513.711 251.124C512.724 251.124 511.781 251.339 510.88 251.768C510.022 252.197 509.207 252.839 508.435 253.697L504.445 249.644C505.604 247.885 506.933 246.577 508.435 245.719C509.979 244.818 511.673 244.367 513.518 244.367Z" fill="#2A2A2A"/>
<path d="M586.354 235.865L582.542 242.983C583.213 243.158 583.84 243.552 584.424 244.166C585.282 244.981 585.711 246.032 585.711 247.318C585.711 248.648 585.239 249.807 584.295 250.794C583.351 251.78 582.214 252.273 580.885 252.273C579.598 252.273 578.461 251.801 577.475 250.857C576.531 249.871 576.059 248.691 576.059 247.318C576.059 246.761 576.166 246.118 576.381 245.389C576.638 244.617 577.067 243.651 577.668 242.493L582.43 233.741L586.354 235.865Z" fill="#2A2A2A"/>
<path d="M599.481 235.865L595.669 242.983C596.34 243.158 596.968 243.552 597.551 244.166C598.409 244.981 598.838 246.032 598.838 247.318C598.838 248.648 598.366 249.807 597.422 250.794C596.478 251.78 595.341 252.273 594.012 252.273C592.725 252.273 591.588 251.801 590.602 250.857C589.658 249.871 589.186 248.691 589.186 247.318C589.186 246.761 589.293 246.118 589.508 245.389C589.765 244.617 590.193 243.651 590.794 242.493L595.556 233.741L599.481 235.865Z" fill="#2A2A2A"/>
<path d="M748.354 235.865L744.542 242.983C745.213 243.158 745.84 243.552 746.424 244.166C747.282 244.981 747.711 246.032 747.711 247.318C747.711 248.648 747.239 249.807 746.295 250.794C745.351 251.78 744.214 252.273 742.885 252.273C741.598 252.273 740.461 251.801 739.475 250.857C738.531 249.871 738.059 248.691 738.059 247.318C738.059 246.761 738.166 246.118 738.381 245.389C738.638 244.617 739.067 243.651 739.668 242.493L744.43 233.741L748.354 235.865Z" fill="#2A2A2A"/>
<path d="M761.481 235.865L757.669 242.983C758.34 243.158 758.968 243.552 759.551 244.166C760.409 244.981 760.838 246.032 760.838 247.318C760.838 248.648 760.366 249.807 759.422 250.794C758.478 251.78 757.341 252.273 756.012 252.273C754.725 252.273 753.588 251.801 752.602 250.857C751.658 249.871 751.186 248.691 751.186 247.318C751.186 246.761 751.293 246.118 751.508 245.389C751.765 244.617 752.193 243.651 752.794 242.493L757.556 233.741L761.481 235.865Z" fill="#2A2A2A"/>
<path d="M814.707 246.851H808.207V188.351H814.707V246.851Z" fill="#2A2A2A"/>
<path d="M877.707 246.851H871.207V188.351H877.707V246.851Z" fill="#2A2A2A"/>
<path fill-rule="evenodd" clip-rule="evenodd" d="M168.557 199.5C171.59 199.5 174.32 200.216 176.747 201.646C179.174 203.032 181.08 204.917 182.467 207.301C183.897 209.641 184.612 212.284 184.612 215.23C184.612 219.39 183.16 223.594 180.257 227.841L167.842 245.65H159.197L170.594 229.693C169.559 230.016 168.274 230.181 166.737 230.181C164.137 230.181 161.754 229.574 159.587 228.36C157.42 227.104 155.687 225.37 154.387 223.16C153.087 220.95 152.437 218.393 152.437 215.49C152.437 212.544 153.152 209.857 154.582 207.431C156.055 205.004 158.005 203.075 160.432 201.646C162.858 200.216 165.567 199.5 168.557 199.5ZM168.557 206.521C166.91 206.521 165.437 206.91 164.137 207.69C162.837 208.47 161.797 209.532 161.017 210.875C160.28 212.218 159.912 213.757 159.912 215.49C159.912 217.18 160.28 218.697 161.017 220.04C161.797 221.34 162.837 222.38 164.137 223.16C165.48 223.94 166.953 224.33 168.557 224.33C170.203 224.33 171.677 223.94 172.977 223.16C174.277 222.38 175.296 221.319 176.032 219.976C176.769 218.632 177.137 217.137 177.137 215.49C177.137 213.757 176.769 212.218 176.032 210.875C175.296 209.532 174.276 208.47 172.977 207.69C171.677 206.911 170.203 206.521 168.557 206.521Z" fill="#2A2A2A"/>
<path d="M279.622 235.521C280.995 235.521 282.111 235.971 282.969 236.872C283.869 237.773 284.319 238.91 284.319 240.282C284.319 241.612 283.869 242.749 282.969 243.692C282.111 244.593 280.995 245.044 279.622 245.044C278.249 245.044 277.113 244.593 276.212 243.692C275.354 242.749 274.925 241.612 274.925 240.282C274.925 238.91 275.354 237.773 276.212 236.872C277.113 235.971 278.249 235.521 279.622 235.521Z" fill="#2A2A2A"/>
<path d="M343.523 231.145C343.523 232.646 343.759 233.933 344.23 235.006C344.745 236.035 345.475 236.829 346.419 237.387C347.406 237.944 348.564 238.223 349.894 238.223C351.952 238.223 353.518 237.623 354.591 236.422C355.706 235.178 356.264 233.418 356.264 231.145V213.514H363.342V231.467C363.342 234.169 362.763 236.55 361.604 238.609C360.489 240.625 358.923 242.213 356.907 243.371C354.891 244.486 352.553 245.044 349.894 245.044C347.277 245.044 344.939 244.465 342.88 243.307C340.864 242.148 339.276 240.561 338.118 238.545C337.003 236.486 336.445 234.126 336.445 231.467V213.514H343.523V231.145Z" fill="#2A2A2A"/>
<path d="M423.622 235.521C424.995 235.521 426.111 235.971 426.969 236.872C427.869 237.773 428.319 238.91 428.319 240.282C428.319 241.612 427.869 242.749 426.969 243.692C426.111 244.593 424.995 245.044 423.622 245.044C422.249 245.044 421.113 244.593 420.212 243.692C419.354 242.749 418.925 241.612 418.925 240.282C418.925 238.91 419.354 237.773 420.212 236.872C421.113 235.971 422.249 235.521 423.622 235.521Z" fill="#2A2A2A"/>
<path d="M522.518 226.367C523.762 226.367 524.834 226.517 525.735 226.817C526.679 227.118 527.536 227.483 528.309 227.912C529.081 228.298 529.832 228.641 530.562 228.941C531.334 229.242 532.191 229.392 533.135 229.392C534.121 229.392 535.044 229.177 535.902 228.748C536.803 228.319 537.639 227.675 538.411 226.817L542.401 230.872C541.243 232.588 539.891 233.896 538.347 234.797C536.845 235.698 535.173 236.148 533.328 236.148C532.084 236.148 530.991 235.997 530.047 235.697C529.146 235.397 528.309 235.054 527.537 234.668C526.765 234.239 525.993 233.874 525.221 233.574C524.491 233.274 523.655 233.124 522.711 233.124C521.724 233.124 520.781 233.339 519.88 233.768C519.022 234.197 518.207 234.839 517.435 235.697L513.445 231.644C514.604 229.885 515.933 228.577 517.435 227.719C518.979 226.818 520.673 226.367 522.518 226.367Z" fill="#2A2A2A"/>
<path d="M666.977 209.026L678.688 190.607H687.117L670.645 215.766V235.65H663.245V216.05L646.708 190.607H655.266L666.977 209.026Z" fill="#2A2A2A"/>
<path d="M320.079 202.271V207.418L291.702 219.966V212.823L311.04 204.844L291.702 196.865V189.723L320.079 202.271Z" fill="#2A2A2A"/>
<path d="M410.079 196.865L390.74 204.844L410.079 212.823V219.966L381.702 207.418V202.271L410.079 189.723V196.865Z" fill="#2A2A2A"/>
<path d="M257.499 213.725H250.871L268.889 163.534H275.516L257.499 213.725Z" fill="#2A2A2A"/>
<path d="M451.516 213.725H444.889L426.871 163.534H433.499L451.516 213.725Z" fill="#2A2A2A"/>
<path d="M567.499 211.225H560.871L578.889 161.034H585.516L567.499 211.225Z" fill="#2A2A2A"/>
<path d="M773.516 211.225H766.889L748.871 161.034H755.499L773.516 211.225Z" fill="#2A2A2A"/>
<path d="M835.41 199.026L842.491 179.514H846.609L853.69 199.026L860.959 179.514H868.295L855.876 210.4H851.758L844.551 191.994L837.344 210.4H833.226L820.807 179.514H828.143L835.41 199.026Z" fill="#2A2A2A"/>
<path fill-rule="evenodd" clip-rule="evenodd" d="M618.373 177.12C621.419 177.12 624.164 177.829 626.609 179.244C629.055 180.66 630.986 182.59 632.401 185.035C633.86 187.437 634.589 190.14 634.589 193.143C634.589 196.145 633.86 198.869 632.401 201.314C630.986 203.76 629.055 205.712 626.609 207.171C624.164 208.586 621.419 209.294 618.373 209.294C615.37 209.294 612.646 208.586 610.201 207.171C607.756 205.712 605.804 203.76 604.346 201.314C602.93 198.869 602.223 196.145 602.223 193.143C602.223 190.14 602.93 187.437 604.346 185.035C605.804 182.633 607.756 180.724 610.201 179.309C612.646 177.85 615.37 177.12 618.373 177.12ZM618.373 183.941C616.657 183.941 615.113 184.349 613.74 185.164C612.411 185.936 611.36 187.008 610.588 188.381C609.859 189.754 609.493 191.341 609.493 193.143C609.493 194.944 609.859 196.553 610.588 197.969C611.36 199.384 612.411 200.499 613.74 201.314C615.113 202.087 616.657 202.473 618.373 202.473C620.132 202.473 621.677 202.087 623.007 201.314C624.379 200.499 625.43 199.384 626.159 197.969C626.931 196.553 627.317 194.944 627.317 193.143C627.317 191.341 626.931 189.754 626.159 188.381C625.387 187.008 624.336 185.936 623.007 185.164C621.677 184.349 620.132 183.941 618.373 183.941Z" fill="#2A2A2A"/>
<path fill-rule="evenodd" clip-rule="evenodd" d="M717.373 177.12C720.419 177.12 723.164 177.829 725.609 179.244C728.055 180.66 729.986 182.59 731.401 185.035C732.86 187.437 733.589 190.14 733.589 193.143C733.589 196.145 732.86 198.869 731.401 201.314C729.986 203.76 728.055 205.712 725.609 207.171C723.164 208.586 720.419 209.294 717.373 209.294C714.37 209.294 711.646 208.586 709.201 207.171C706.756 205.712 704.804 203.76 703.346 201.314C701.93 198.869 701.223 196.145 701.223 193.143C701.223 190.14 701.93 187.437 703.346 185.035C704.804 182.633 706.756 180.724 709.201 179.309C711.646 177.85 714.37 177.12 717.373 177.12ZM717.373 183.941C715.657 183.941 714.113 184.349 712.74 185.164C711.411 185.936 710.36 187.008 709.588 188.381C708.859 189.754 708.493 191.341 708.493 193.143C708.493 194.944 708.859 196.553 709.588 197.969C710.36 199.384 711.411 200.499 712.74 201.314C714.113 202.087 715.657 202.473 717.373 202.473C719.132 202.473 720.677 202.087 722.007 201.314C723.379 200.499 724.43 199.384 725.159 197.969C725.931 196.553 726.317 194.944 726.317 193.143C726.317 191.341 725.931 189.754 725.159 188.381C724.387 187.008 723.336 185.936 722.007 185.164C720.677 184.349 719.132 183.941 717.373 183.941Z" fill="#2A2A2A"/>
<path d="M818.499 176.975H811.871L829.889 126.784H836.516L818.499 176.975Z" fill="#2A2A2A"/>
<path d="M872.516 176.975H865.889L847.871 126.784H854.499L872.516 176.975Z" fill="#2A2A2A"/>
<path d="M332.687 154.521C333.973 154.521 335.088 155.014 336.032 156.001C337.019 156.945 337.513 158.103 337.513 159.476C337.513 159.964 337.414 160.533 337.217 161.186L337.037 161.754C336.807 162.439 336.43 163.288 335.904 164.301L331.143 173.053L327.217 170.929L331.025 163.815C330.345 163.65 329.697 163.276 329.083 162.692C328.268 161.835 327.86 160.762 327.86 159.476C327.86 158.103 328.311 156.945 329.212 156.001C330.156 155.014 331.314 154.521 332.687 154.521Z" fill="#2A2A2A"/>
<path d="M350.47 154.521C351.676 154.521 352.732 154.954 353.637 155.821L353.995 156.18C354.862 157.09 355.296 158.189 355.296 159.476C355.296 159.964 355.197 160.533 355 161.186L354.82 161.754C354.59 162.439 354.213 163.288 353.688 164.301L348.926 173.053L345 170.929L348.809 163.815C348.128 163.65 347.48 163.276 346.866 162.692C346.051 161.835 345.644 160.762 345.644 159.476C345.644 158.103 346.094 156.945 346.995 156.001C347.939 155.014 349.097 154.521 350.47 154.521Z" fill="#2A2A2A"/>
<path d="M368.253 154.521C369.459 154.521 370.515 154.954 371.42 155.821L371.778 156.18C372.646 157.09 373.079 158.189 373.079 159.476C373.079 159.964 372.98 160.533 372.783 161.186L372.604 161.754C372.374 162.439 371.996 163.288 371.471 164.301L366.709 173.053L362.784 170.929L366.592 163.815C365.912 163.65 365.264 163.276 364.649 162.692C363.835 161.835 363.428 160.762 363.428 159.476C363.428 158.103 363.878 156.945 364.778 156.001C365.722 155.014 366.88 154.521 368.253 154.521Z" fill="#2A2A2A"/>
<path d="M277.499 156.975H270.871L288.889 106.784H295.516L277.499 156.975Z" fill="#2A2A2A"/>
<path d="M322.516 156.975H315.889L297.871 106.784H304.499L322.516 156.975Z" fill="#2A2A2A"/>
<path d="M385.499 156.975H378.871L396.889 106.784H403.516L385.499 156.975Z" fill="#2A2A2A"/>
<path d="M430.516 156.975H423.889L405.871 106.784H412.499L430.516 156.975Z" fill="#2A2A2A"/>
<path d="M663.687 136.771C664.973 136.771 666.088 137.264 667.032 138.251C668.019 139.195 668.513 140.353 668.513 141.726C668.513 142.214 668.414 142.783 668.217 143.436L668.037 144.004C667.807 144.689 667.43 145.538 666.904 146.551L662.143 155.303L658.217 153.179L662.025 146.065C661.345 145.9 660.697 145.526 660.083 144.942C659.268 144.085 658.86 143.012 658.86 141.726C658.86 140.353 659.311 139.195 660.212 138.251C661.156 137.264 662.314 136.771 663.687 136.771Z" fill="#2A2A2A"/>
<path d="M15.6992 127.638L24.0654 107.514H31.916L17.5664 138.722L11.8398 151.27H3.98926L11.7422 135.295L0 107.514H7.78613L15.6992 127.638Z" fill="#2A2A2A"/>
<path d="M585.707 150.601H579.207V92.1006H585.707V150.601Z" fill="#2A2A2A"/>
<path d="M648.707 150.601H642.207V92.1006H648.707V150.601Z" fill="#2A2A2A"/>
<path d="M684.707 150.601H678.207V92.1006H684.707V150.601Z" fill="#2A2A2A"/>
<path d="M747.707 150.601H741.207V92.1006H747.707V150.601Z" fill="#2A2A2A"/>
<path fill-rule="evenodd" clip-rule="evenodd" d="M50.8613 106.551C53.938 106.551 56.7116 107.265 59.1816 108.695C61.6514 110.125 63.6013 112.075 65.0312 114.545C66.5046 116.972 67.2412 119.702 67.2412 122.735C67.2412 125.769 66.5046 128.52 65.0312 130.99C63.6013 133.46 61.6515 135.432 59.1816 136.905C56.7116 138.335 53.938 139.051 50.8613 139.051C47.828 139.051 45.0764 138.335 42.6064 136.905C40.1365 135.432 38.1647 133.46 36.6914 130.99C35.2615 128.52 34.5469 125.769 34.5469 122.735C34.5469 119.702 35.2614 116.972 36.6914 114.545C38.1647 112.118 40.1366 110.191 42.6064 108.761C45.0764 107.287 47.828 106.551 50.8613 106.551ZM50.8613 113.44C49.128 113.44 47.5683 113.852 46.1816 114.676C44.8383 115.456 43.7761 116.539 42.9961 117.926C42.2596 119.312 41.8916 120.916 41.8916 122.735C41.8916 124.555 42.2595 126.18 42.9961 127.61C43.7761 129.04 44.8383 130.167 46.1816 130.99C47.5683 131.77 49.1281 132.16 50.8613 132.16C52.6379 132.16 54.1977 131.77 55.541 130.99C56.9277 130.167 57.9899 129.04 58.7266 127.61C59.5065 126.18 59.8965 124.555 59.8965 122.735C59.8965 120.916 59.5064 119.312 58.7266 117.926C57.9466 116.539 56.8843 115.456 55.541 114.676C54.1977 113.853 52.6379 113.44 50.8613 113.44Z" fill="#2A2A2A"/>
<path d="M79.5576 125.011C79.5577 126.527 79.7959 127.827 80.2725 128.91C80.7925 129.95 81.5291 130.752 82.4824 131.315C83.479 131.879 84.649 132.16 85.9922 132.16C88.072 132.16 89.654 131.554 90.7373 130.341C91.8639 129.084 92.4277 127.307 92.4277 125.011V107.2H99.5771V125.335C99.5771 128.065 98.9923 130.471 97.8223 132.551C96.6956 134.587 95.1137 136.19 93.0771 137.36C91.0405 138.487 88.6788 139.051 85.9922 139.051C83.349 139.051 80.9872 138.465 78.9072 137.295C76.8708 136.125 75.2676 134.522 74.0977 132.485C72.971 130.405 72.4072 128.022 72.4072 125.335V107.2H79.5576V125.011Z" fill="#2A2A2A"/>
<path fill-rule="evenodd" clip-rule="evenodd" d="M1057.6 100.87C1060.48 100.87 1063.01 101.535 1065.2 102.865C1067.43 104.195 1069.17 106.019 1070.41 108.335C1071.7 110.651 1072.34 113.289 1072.34 116.249C1072.34 116.764 1072.3 117.301 1072.21 117.858C1072.17 118.373 1072.08 118.952 1071.95 119.596H1048.91C1049.1 120.4 1049.39 121.151 1049.75 121.848C1050.53 123.306 1051.62 124.443 1053.04 125.258C1054.45 126.03 1056.08 126.416 1057.93 126.416C1059.51 126.416 1060.97 126.138 1062.3 125.58C1063.67 125.022 1064.83 124.207 1065.78 123.135L1070.28 127.703C1068.78 129.462 1066.96 130.792 1064.81 131.692C1062.67 132.593 1060.39 133.044 1057.99 133.044C1054.9 133.044 1052.11 132.357 1049.62 130.984C1047.18 129.569 1045.23 127.638 1043.77 125.193C1042.35 122.748 1041.65 120.003 1041.65 116.957C1041.65 113.911 1042.35 111.187 1043.77 108.785C1045.19 106.34 1047.09 104.41 1049.5 102.994C1051.94 101.579 1054.64 100.87 1057.6 100.87ZM1057.48 107.369C1055.67 107.369 1054.11 107.755 1052.78 108.527C1051.45 109.3 1050.42 110.394 1049.69 111.81C1049.37 112.419 1049.11 113.084 1048.93 113.804H1065.37C1065.19 112.895 1064.91 112.08 1064.55 111.359C1063.91 110.072 1062.99 109.086 1061.79 108.399C1060.63 107.713 1059.19 107.369 1057.48 107.369Z" fill="#2A2A2A"/>
<path d="M1024.38 100.87C1026.61 100.87 1028.63 101.342 1030.43 102.286C1032.23 103.23 1033.67 104.56 1034.74 106.275C1035.81 107.991 1036.35 110.051 1036.35 112.453V132.4H1029.27V113.997C1029.27 111.938 1028.63 110.351 1027.34 109.235C1026.05 108.077 1024.47 107.498 1022.58 107.498C1021.33 107.498 1020.2 107.756 1019.17 108.271C1018.14 108.785 1017.32 109.536 1016.72 110.522C1016.12 111.466 1015.82 112.624 1015.82 113.997V132.4H1008.74V113.997C1008.74 111.938 1008.1 110.351 1006.81 109.235C1005.53 108.077 1003.94 107.498 1002.05 107.498C1000.76 107.498 999.607 107.756 998.577 108.271C997.591 108.785 996.797 109.536 996.196 110.522C995.596 111.466 995.295 112.624 995.295 113.997V132.4H988.217V101.514H995.295V104.674C996.129 103.737 997.115 102.962 998.255 102.351C1000.01 101.364 1001.99 100.87 1004.17 100.87C1006.36 100.87 1008.34 101.342 1010.09 102.286C1011.76 103.182 1013.1 104.426 1014.12 106.017C1015.24 104.456 1016.64 103.234 1018.33 102.351C1020.18 101.364 1022.19 100.87 1024.38 100.87Z" fill="#2A2A2A"/>
<path d="M202.079 113.271V118.418L173.702 130.966V123.823L193.04 115.844L173.702 107.865V100.723L202.079 113.271Z" fill="#2A2A2A"/>
<path d="M918.079 107.865L898.74 115.844L918.079 123.823V130.966L889.702 118.418V113.271L918.079 100.723V107.865Z" fill="#2A2A2A"/>
<path d="M136.292 121.205H114.257V114.445H136.292V121.205Z" fill="#2A2A2A"/>
<path d="M166.253 121.205H144.218V114.445H166.253V121.205Z" fill="#2A2A2A"/>
<path d="M838.687 102.521C839.973 102.521 841.088 103.014 842.032 104.001C843.019 104.945 843.513 106.103 843.513 107.476C843.513 107.964 843.414 108.533 843.217 109.186L843.037 109.754C842.807 110.439 842.43 111.288 841.904 112.301L837.143 121.053L833.217 118.929L837.025 111.815C836.345 111.65 835.697 111.276 835.083 110.692C834.268 109.835 833.86 108.762 833.86 107.476C833.86 106.103 834.311 104.945 835.212 104.001C836.156 103.014 837.314 102.521 838.687 102.521Z" fill="#2A2A2A"/>
<path d="M946.292 120.205H924.257V113.445H946.292V120.205Z" fill="#2A2A2A"/>
<path d="M976.253 120.205H954.218V113.445H976.253V120.205Z" fill="#2A2A2A"/>
<path d="M585.707 87.6006H579.207V29.1006H585.707V87.6006Z" fill="#2A2A2A"/>
<path d="M648.707 87.6006H642.207V29.1006H648.707V87.6006Z" fill="#2A2A2A"/>
<path d="M684.707 87.6006H678.207V29.1006H684.707V87.6006Z" fill="#2A2A2A"/>
<path d="M747.707 87.6006H741.207V29.1006H747.707V87.6006Z" fill="#2A2A2A"/>
<path d="M368.079 84.4619H339.702V78.0264H368.079V84.4619Z" fill="#2A2A2A"/>
<path d="M368.079 69.6621H339.702V63.2266H368.079V69.6621Z" fill="#2A2A2A"/>
<path d="M335.167 12.3652C332.307 15.0086 330.075 18.4324 328.472 22.6357C326.912 26.7956 326.132 31.5192 326.132 36.8057C326.132 42.0489 326.912 46.7723 328.472 50.9756C330.075 55.1788 332.307 58.6018 335.167 61.2451L331.072 64.8857C328.776 62.8491 326.782 60.3568 325.092 57.4102C323.445 54.4636 322.167 51.2354 321.257 47.7256C320.347 44.2157 319.892 40.5756 319.892 36.8057C319.892 33.0358 320.347 29.3956 321.257 25.8857C322.167 22.3757 323.445 19.1469 325.092 16.2002C326.782 13.2536 328.776 10.7622 331.072 8.72559L335.167 12.3652Z" fill="#2A2A2A"/>
<path d="M376.947 8.72559C379.244 10.7622 381.216 13.2536 382.862 16.2002C384.552 19.1469 385.852 22.3757 386.762 25.8857C387.672 29.3957 388.127 33.0358 388.127 36.8057C388.127 40.5756 387.672 44.2157 386.762 47.7256C385.852 51.2354 384.552 54.4636 382.862 57.4102C381.216 60.3568 379.244 62.8491 376.947 64.8857L372.852 61.2451C375.712 58.6018 377.922 55.1789 379.482 50.9756C381.086 46.7723 381.887 42.0489 381.887 36.8057C381.887 31.5192 381.086 26.7956 379.482 22.6357C377.922 18.4324 375.712 15.0086 372.852 12.3652L376.947 8.72559Z" fill="#2A2A2A"/>
<path d="M362.422 33.3877L356.76 41.6875L366.927 42.0098L365.896 48.3799L356.181 45.5488L359.012 55.3291L352.577 56.3594L352.255 46.1924L343.954 51.79L340.994 46.0635L350.39 42.6533L342.604 36.6045L347.172 32.0361L353.221 39.8223L356.631 30.4277L362.422 33.3877Z" fill="#2A2A2A"/>
<path d="M611.292 20.9551H589.257V14.1953H611.292V20.9551Z" fill="#2A2A2A"/>
<path d="M641.253 20.9551H619.218V14.1953H641.253V20.9551Z" fill="#2A2A2A"/>
<path d="M709.292 20.9551H687.257V14.1953H709.292V20.9551Z" fill="#2A2A2A"/>
<path d="M739.253 20.9551H717.218V14.1953H739.253V20.9551Z" fill="#2A2A2A"/>
<path d="M369.557 6.17578H338.292V0H369.557V6.17578Z" fill="#2A2A2A"/>
</svg>
